<svg xmlns="http://www.w3.org/2000/svg" width="2760" height="1120" viewBox="0 0 2760 1120">
  <defs>
    <style>
      .font { font-family: Pretendard, "Noto Sans KR", Inter, Arial, sans-serif; }
      .title { font-size: 34px; font-weight: 800; fill: #24324B; }
      .subtitle { font-size: 16px; font-weight: 600; fill: #6F7788; }
      .screen-label { font-size: 18px; font-weight: 800; fill: #24324B; }
      .h1 { font-size: 28px; font-weight: 800; fill: #24324B; }
      .h2 { font-size: 20px; font-weight: 800; fill: #24324B; }
      .h3 { font-size: 16px; font-weight: 800; fill: #24324B; }
      .body { font-size: 14px; font-weight: 500; fill: #6F7788; }
      .small { font-size: 12px; font-weight: 700; fill: #7C8492; }
      .tiny { font-size: 10px; font-weight: 700; fill: #8B92A0; }
      .white { fill: #FFFFFF; }
      .ink { fill: #24324B; }
      .muted { fill: #6F7788; }
      .rose { fill: #E85D75; }
      .coral { fill: #F47C7C; }
      .mint { fill: #2FAE9B; }
      .navy { fill: #24324B; }
      .line { stroke: #E7DDE3; stroke-width: 1; }
    </style>
    <filter id="phoneShadow" x="-20%" y="-20%" width="140%" height="150%">
      <feDropShadow dx="0" dy="14" stdDeviation="18" flood-color="#9D6574" flood-opacity="0.18"/>
    </filter>
    <filter id="softShadow" x="-20%" y="-20%" width="140%" height="150%">
      <feDropShadow dx="0" dy="8" stdDeviation="10" flood-color="#9D6574" flood-opacity="0.13"/>
    </filter>
    <linearGradient id="returnGradient" x1="0" y1="0" x2="1" y2="1">
      <stop offset="0" stop-color="#E85D75"/>
      <stop offset="0.58" stop-color="#F47C7C"/>
      <stop offset="1" stop-color="#2FAE9B"/>
    </linearGradient>
    <linearGradient id="callGradient" x1="0" y1="0" x2="1" y2="1">
      <stop offset="0" stop-color="#5547A8"/>
      <stop offset="1" stop-color="#2FAE9B"/>
    </linearGradient>
    <symbol id="icon-shield" viewBox="0 0 24 24">
      <path d="M12 3l7 3v5c0 5-3 8-7 10-4-2-7-5-7-10V6l7-3z" fill="none" stroke="currentColor" stroke-width="2" stroke-linejoin="round"/>
      <path d="M9 12l2 2 4-5" fill="none" stroke="currentColor" stroke-width="2" stroke-linecap="round" stroke-linejoin="round"/>
    </symbol>
    <symbol id="icon-heart" viewBox="0 0 24 24">
      <path d="M12 20s-7-4.5-9-9.2C1.3 6.8 4 4 7.3 4c1.9 0 3.4 1 4.7 2.7C13.3 5 14.8 4 16.7 4 20 4 22.7 6.8 21 10.8 19 15.5 12 20 12 20z" fill="none" stroke="currentColor" stroke-width="2" stroke-linejoin="round"/>
    </symbol>
    <symbol id="icon-bell" viewBox="0 0 24 24">
      <path d="M6 10a6 6 0 1112 0c0 7 3 7 3 9H3c0-2 3-2 3-9z" fill="none" stroke="currentColor" stroke-width="2" stroke-linejoin="round"/>
      <path d="M10 21a2.2 2.2 0 004 0" fill="none" stroke="currentColor" stroke-width="2" stroke-linecap="round"/>
    </symbol>
    <symbol id="icon-mic" viewBox="0 0 24 24">
      <rect x="9" y="3" width="6" height="12" rx="3" fill="none" stroke="currentColor" stroke-width="2"/>
      <path d="M5 11c0 4 3 7 7 7s7-3 7-7M12 18v3" fill="none" stroke="currentColor" stroke-width="2" stroke-linecap="round"/>
    </symbol>
    <symbol id="icon-map" viewBox="0 0 24 24">
      <path d="M9 18l-6 3V6l6-3 6 3 6-3v15l-6 3-6-3z" fill="none" stroke="currentColor" stroke-width="2" stroke-linejoin="round"/>
      <path d="M9 3v15M15 6v15" fill="none" stroke="currentColor" stroke-width="2" stroke-linecap="round"/>
    </symbol>
    <symbol id="icon-phone" viewBox="0 0 24 24">
      <path d="M7 4l3 4-2 2c1 3 3 5 6 6l2-2 4 3-1 3c-9 1-16-6-15-15l3-1z" fill="none" stroke="currentColor" stroke-width="2" stroke-linejoin="round"/>
    </symbol>
    <symbol id="icon-list" viewBox="0 0 24 24">
      <path d="M8 6h12M8 12h12M8 18h12M4 6h.01M4 12h.01M4 18h.01" fill="none" stroke="currentColor" stroke-width="2" stroke-linecap="round"/>
    </symbol>
    <symbol id="icon-alert" viewBox="0 0 24 24">
      <path d="M12 3l10 18H2L12 3z" fill="none" stroke="currentColor" stroke-width="2" stroke-linejoin="round"/>
      <path d="M12 9v5M12 17h.01" fill="none" stroke="currentColor" stroke-width="2" stroke-linecap="round"/>
    </symbol>
  </defs>

  <rect width="2760" height="1120" fill="#FFF7F9"/>
  <rect x="0" y="0" width="2760" height="132" fill="#FFF1F4"/>
  <text x="64" y="60" class="font title">SafeWay Feminine Friendly Android UI</text>
  <text x="64" y="90" class="font subtitle">여성·학생 안심귀가 / 보호자 푸시 알림 / AI 동행 통화 / 더 부드럽고 차분한 안전 경험</text>
  <text x="2040" y="60" class="font small">Rose #E85D75 · Coral #F47C7C · Mint #2FAE9B · Ink #24324B</text>
  <text x="2040" y="86" class="font small">Screen 390x844 · Radius 18/12 · Soft cards · Android XML 구현 기준</text>

  <!-- Screen 1 -->
  <g class="font" transform="translate(64 160)">
    <text x="0" y="-28" class="screen-label">01 메인 / 안심 시작</text>
    <rect x="0" y="0" width="390" height="844" rx="34" fill="#D8CBD2" filter="url(#phoneShadow)"/>
    <rect x="8" y="8" width="374" height="828" rx="28" fill="#FFFDFE"/>
    <rect x="176" y="22" width="38" height="6" rx="3" fill="#24324B" opacity="0.18"/>
    <text x="32" y="52" class="small ink">9:41</text>
    <rect x="332" y="42" width="28" height="12" rx="3" fill="none" stroke="#24324B" stroke-width="2"/>
    <rect x="338" y="45" width="16" height="6" rx="2" fill="#24324B"/>

    <text x="32" y="104" class="h1">SafeWay</text>
    <text x="32" y="132" class="body">오늘도 조용히, 안전하게 귀가해요.</text>
    <rect x="286" y="88" width="68" height="34" rx="17" fill="#FFF0F3"/>
    <text x="306" y="110" class="tiny rose">귀가 전</text>

    <rect x="32" y="164" width="326" height="138" rx="18" fill="#FFFFFF" stroke="#F1DDE4" filter="url(#softShadow)"/>
    <circle cx="76" cy="214" r="24" fill="#EAF9F6"/>
    <g transform="translate(64 202)" color="#2FAE9B"><use href="#icon-shield" width="24" height="24"/></g>
    <text x="112" y="202" class="tiny muted">현재 상태</text>
    <text x="112" y="230" class="h2">귀가 전</text>
    <text x="52" y="274" class="body">시작하면 보호자에게 푸시 알림이 전송됩니다.</text>

    <rect x="32" y="326" width="326" height="54" rx="14" fill="#E85D75" filter="url(#softShadow)"/>
    <g transform="translate(112 341)" color="#FFFFFF"><use href="#icon-shield" width="22" height="22"/></g>
    <text x="146" y="360" class="h3 white">안심귀가 시작하기</text>

    <text x="32" y="418" class="h3">예상 귀가 시간</text>
    <rect x="32" y="438" width="72" height="40" rx="20" fill="#FFF0F3"/>
    <text x="54" y="463" class="small rose">10분</text>
    <rect x="116" y="438" width="72" height="40" rx="20" fill="#E85D75"/>
    <text x="138" y="463" class="small white">20분</text>
    <rect x="200" y="438" width="72" height="40" rx="20" fill="#FFF0F3"/>
    <text x="222" y="463" class="small rose">30분</text>
    <rect x="284" y="438" width="74" height="40" rx="20" fill="#F5F7FA"/>
    <text x="302" y="463" class="tiny muted">직접 입력</text>

    <text x="32" y="520" class="h3">긴급 상황</text>
    <rect x="32" y="542" width="154" height="56" rx="14" fill="#FFF0F1" stroke="#FFD5DA"/>
    <g transform="translate(58 558)" color="#E5484D"><use href="#icon-phone" width="24" height="24"/></g>
    <text x="96" y="578" class="h3" fill="#E5484D">112</text>
    <rect x="204" y="542" width="154" height="56" rx="14" fill="#F1FBF8" stroke="#D7F1EB"/>
    <g transform="translate(226 558)" color="#2FAE9B"><use href="#icon-bell" width="24" height="24"/></g>
    <text x="264" y="578" class="h3 mint">보호자</text>

    <rect x="32" y="622" width="326" height="72" rx="16" fill="#24324B"/>
    <g transform="translate(56 646)" color="#FFFFFF"><use href="#icon-mic" width="24" height="24"/></g>
    <text x="96" y="652" class="h3 white">AI 안심 동행 통화</text>
    <text x="96" y="676" class="tiny" fill="#DDE7F6">불안할 때 목소리로 바로 대화</text>

    <rect x="32" y="728" width="96" height="64" rx="14" fill="#FFFFFF" stroke="#F1DDE4"/>
    <g transform="translate(68 744)" color="#E85D75"><use href="#icon-list" width="22" height="22"/></g>
    <text x="60" y="782" class="tiny muted">귀가 기록</text>
    <rect x="147" y="728" width="96" height="64" rx="14" fill="#FFFFFF" stroke="#F1DDE4"/>
    <g transform="translate(184 744)" color="#F47C7C"><use href="#icon-alert" width="22" height="22"/></g>
    <text x="176" y="782" class="tiny muted">위험 메모</text>
    <rect x="262" y="728" width="96" height="64" rx="14" fill="#FFFFFF" stroke="#F1DDE4"/>
    <g transform="translate(298 744)" color="#2FAE9B"><use href="#icon-heart" width="22" height="22"/></g>
    <text x="290" y="782" class="tiny muted">보호자</text>
  </g>

  <!-- Screen 2 -->
  <g class="font" transform="translate(494 160)">
    <text x="0" y="-28" class="screen-label">02 귀가 중 / 위치 알림</text>
    <rect x="0" y="0" width="390" height="844" rx="34" fill="#D8CBD2" filter="url(#phoneShadow)"/>
    <rect x="8" y="8" width="374" height="828" rx="28" fill="#FFFDFE"/>
    <text x="32" y="52" class="small ink">9:53</text>
    <rect x="332" y="42" width="28" height="12" rx="3" fill="none" stroke="#24324B" stroke-width="2"/>
    <text x="32" y="104" class="h1">SafeWay</text>
    <text x="32" y="132" class="body">보호자에게 시작 알림을 보냈어요.</text>
    <rect x="286" y="88" width="68" height="34" rx="17" fill="#FFF0F3"/>
    <text x="306" y="110" class="tiny rose">귀가 중</text>

    <rect x="32" y="162" width="326" height="164" rx="20" fill="url(#returnGradient)" filter="url(#softShadow)"/>
    <text x="58" y="206" class="small white">경과 시간</text>
    <text x="58" y="256" font-size="44" font-weight="800" fill="#FFFFFF">00:12:45</text>
    <circle cx="310" cy="222" r="30" fill="#FFFFFF" opacity="0.22"/>
    <g transform="translate(298 210)" color="#FFFFFF"><use href="#icon-map" width="24" height="24"/></g>
    <text x="58" y="290" class="tiny" fill="#FFE8EE">시작 21:40 · 예상 30분</text>
    <rect x="58" y="308" width="230" height="8" rx="4" fill="#FFFFFF" opacity="0.28"/>
    <rect x="58" y="308" width="112" height="8" rx="4" fill="#FFFFFF"/>

    <rect x="32" y="348" width="326" height="56" rx="14" fill="#FFF9EA" stroke="#FFE1A3"/>
    <text x="62" y="374" class="small" fill="#B87500">예상 시간까지 17분 남음</text>
    <text x="62" y="392" class="tiny muted">도착하면 바로 완료 버튼을 눌러주세요.</text>

    <rect x="32" y="426" width="326" height="54" rx="14" fill="#2FAE9B"/>
    <text x="136" y="460" class="h3 white">귀가 완료하기</text>
    <rect x="32" y="500" width="154" height="56" rx="14" fill="#E5484D"/>
    <g transform="translate(58 516)" color="#FFFFFF"><use href="#icon-phone" width="24" height="24"/></g>
    <text x="100" y="536" class="h3 white">112 전화</text>
    <rect x="204" y="500" width="154" height="56" rx="14" fill="#FFFFFF" stroke="#F1DDE4"/>
    <g transform="translate(226 516)" color="#E85D75"><use href="#icon-bell" width="24" height="24"/></g>
    <text x="266" y="536" class="h3 rose">보호자</text>

    <text x="32" y="606" class="h3">근처 주의 메모</text>
    <rect x="32" y="628" width="326" height="58" rx="14" fill="#FFFFFF" stroke="#F1DDE4"/>
    <text x="58" y="654" class="small ink">학교 후문 골목</text>
    <text x="58" y="674" class="tiny muted">가로등이 어둡고 사람이 적음</text>
    <rect x="32" y="700" width="326" height="58" rx="14" fill="#FFFFFF" stroke="#F1DDE4"/>
    <text x="58" y="726" class="small ink">버스정류장 뒤편</text>
    <text x="58" y="746" class="tiny muted">밤 10시 이후 유동 인구 적음</text>
  </g>

  <!-- Screen 3 -->
  <g class="font" transform="translate(924 160)">
    <text x="0" y="-28" class="screen-label">03 보호자 푸시 알림</text>
    <rect x="0" y="0" width="390" height="844" rx="34" fill="#D8CBD2" filter="url(#phoneShadow)"/>
    <rect x="8" y="8" width="374" height="828" rx="28" fill="#FFFDFE"/>
    <text x="32" y="52" class="small ink">9:54</text>
    <rect x="332" y="42" width="28" height="12" rx="3" fill="none" stroke="#24324B" stroke-width="2"/>
    <text x="32" y="104" class="h1">보호자 설정</text>
    <text x="32" y="132" class="body">보호자 앱 토큰과 서버 주소를 저장합니다.</text>

    <rect x="32" y="164" width="326" height="92" rx="18" fill="#24324B"/>
    <g transform="translate(58 194)" color="#FFFFFF"><use href="#icon-heart" width="26" height="26"/></g>
    <text x="100" y="198" class="tiny" fill="#DDE7F6">현재 등록된 보호자</text>
    <text x="100" y="228" class="h2 white">엄마 · 부모님</text>

    <text x="32" y="296" class="h3">이름</text>
    <rect x="32" y="314" width="326" height="52" rx="14" fill="#FFFFFF" stroke="#F1DDE4"/>
    <text x="52" y="346" class="body">엄마</text>
    <text x="32" y="400" class="h3">보호자 앱 푸시 토큰</text>
    <rect x="32" y="418" width="326" height="82" rx="14" fill="#FFF8FA" stroke="#F1DDE4"/>
    <text x="52" y="448" class="tiny muted">eJw4c3... 보호자 기기 FCM 토큰</text>
    <text x="52" y="472" class="tiny muted">알림 수신 기기를 정확히 지정</text>
    <text x="32" y="534" class="h3">푸시 서버 주소</text>
    <rect x="32" y="552" width="326" height="52" rx="14" fill="#FFFFFF" stroke="#F1DDE4"/>
    <text x="52" y="584" class="body">https://safeway.ngrok-free.app</text>

    <rect x="32" y="630" width="326" height="88" rx="16" fill="#F1FBF8" stroke="#D7F1EB"/>
    <g transform="translate(56 654)" color="#2FAE9B"><use href="#icon-bell" width="26" height="26"/></g>
    <text x="96" y="660" class="h3 mint">이 기기의 보호자 앱 토큰</text>
    <text x="96" y="686" class="tiny muted">보호자 폰에서 복사해 사용자 폰에 붙여넣기</text>

    <rect x="32" y="742" width="326" height="54" rx="14" fill="#E85D75"/>
    <text x="148" y="776" class="h3 white">저장하기</text>
  </g>

  <!-- Screen 4 -->
  <g class="font" transform="translate(1354 160)">
    <text x="0" y="-28" class="screen-label">04 AI 안심 동행 통화</text>
    <rect x="0" y="0" width="390" height="844" rx="34" fill="#D8CBD2" filter="url(#phoneShadow)"/>
    <rect x="8" y="8" width="374" height="828" rx="28" fill="#FFFDFE"/>
    <rect x="8" y="8" width="374" height="300" rx="28" fill="url(#callGradient)"/>
    <text x="32" y="52" class="small white">9:56</text>
    <rect x="332" y="42" width="28" height="12" rx="3" fill="none" stroke="#FFFFFF" stroke-width="2"/>
    <text x="32" y="104" class="h2 white">AI 안심 동행 통화</text>
    <text x="32" y="132" class="tiny" fill="#E8F5F2">04:18 · 보호자 모드</text>
    <circle cx="195" cy="178" r="54" fill="#FFFFFF" opacity="0.18"/>
    <circle cx="195" cy="178" r="39" fill="#FFFFFF"/>
    <g transform="translate(179 162)" color="#2FAE9B"><use href="#icon-shield" width="32" height="32"/></g>
    <text x="142" y="260" class="h3 white">AI 보호자 모드</text>

    <rect x="32" y="332" width="326" height="42" rx="21" fill="#F6F7FB" stroke="#E7DDE3"/>
    <rect x="36" y="336" width="96" height="34" rx="17" fill="#E85D75"/>
    <text x="70" y="358" class="tiny white">보호자</text>
    <text x="184" y="358" class="tiny muted">친구</text>
    <text x="286" y="358" class="tiny muted">안내</text>

    <rect x="32" y="402" width="250" height="64" rx="14" fill="#FFFFFF" stroke="#F1DDE4"/>
    <text x="56" y="428" class="tiny rose">AI</text>
    <text x="56" y="450" class="body">지금 어디쯤이야? 주변은 밝아?</text>
    <rect x="108" y="486" width="250" height="64" rx="14" fill="#FFF0F3"/>
    <text x="132" y="512" class="tiny rose">사용자</text>
    <text x="132" y="534" class="body">학교 후문 지나가고 있어요.</text>
    <rect x="32" y="570" width="270" height="76" rx="14" fill="#FFFFFF" stroke="#F1DDE4"/>
    <text x="56" y="596" class="tiny rose">AI</text>
    <text x="56" y="618" class="body">밝은 길 쪽으로 이동하자.</text>
    <text x="56" y="638" class="body">불안하면 보호자 전화도 바로 눌러.</text>

    <rect x="32" y="670" width="326" height="54" rx="14" fill="#FFF0F1" stroke="#FFD5DA"/>
    <g transform="translate(56 685)" color="#E5484D"><use href="#icon-alert" width="24" height="24"/></g>
    <text x="96" y="698" class="small" fill="#E5484D">위험 표현 감지 시 긴급 버튼 강조</text>
    <rect x="32" y="748" width="92" height="54" rx="14" fill="#E5484D"/>
    <text x="64" y="782" class="h3 white">112</text>
    <rect x="146" y="748" width="92" height="54" rx="14" fill="#FFFFFF" stroke="#F1DDE4"/>
    <text x="174" y="782" class="small rose">보호자</text>
    <rect x="260" y="748" width="98" height="54" rx="14" fill="#24324B"/>
    <text x="294" y="782" class="small white">종료</text>
  </g>

  <!-- Screen 5 -->
  <g class="font" transform="translate(1784 160)">
    <text x="0" y="-28" class="screen-label">05 귀가 기록</text>
    <rect x="0" y="0" width="390" height="844" rx="34" fill="#D8CBD2" filter="url(#phoneShadow)"/>
    <rect x="8" y="8" width="374" height="828" rx="28" fill="#FFFDFE"/>
    <text x="32" y="52" class="small ink">9:41</text>
    <rect x="332" y="42" width="28" height="12" rx="3" fill="none" stroke="#24324B" stroke-width="2"/>
    <text x="32" y="104" class="h1">귀가 기록</text>
    <text x="32" y="132" class="body">완료 시간과 AI 통화 요약을 확인합니다.</text>

    <rect x="32" y="164" width="96" height="70" rx="14" fill="#FFFFFF" stroke="#F1DDE4"/>
    <text x="62" y="192" class="tiny muted">이번 주</text>
    <text x="62" y="220" class="h2">4회</text>
    <rect x="146" y="164" width="96" height="70" rx="14" fill="#FFFFFF" stroke="#F1DDE4"/>
    <text x="172" y="192" class="tiny muted">평균 소요</text>
    <text x="176" y="220" class="h2">31분</text>
    <rect x="260" y="164" width="98" height="70" rx="14" fill="#FFFFFF" stroke="#F1DDE4"/>
    <text x="288" y="192" class="tiny muted">AI 통화</text>
    <text x="292" y="220" class="h2">2회</text>

    <rect x="32" y="268" width="326" height="44" rx="22" fill="#F6F7FB" stroke="#E7DDE3"/>
    <rect x="36" y="272" width="88" height="36" rx="18" fill="#E85D75"/>
    <text x="72" y="295" class="tiny white">전체</text>
    <text x="176" y="295" class="tiny muted">완료</text>
    <text x="280" y="295" class="tiny muted">AI 사용</text>

    <rect x="32" y="340" width="326" height="104" rx="16" fill="#FFFFFF" stroke="#F1DDE4"/>
    <text x="56" y="372" class="h3">2026-05-18</text>
    <rect x="300" y="360" width="42" height="24" rx="12" fill="#EAF9F6"/>
    <text x="310" y="376" class="tiny mint">완료</text>
    <text x="56" y="402" class="body">21:30 → 22:05 · 35분</text>
    <text x="56" y="430" class="tiny rose">AI 요약</text>
    <text x="112" y="430" class="tiny muted">학교 후문에서 불안을 느껴 큰길로 이동함</text>

    <rect x="32" y="464" width="326" height="92" rx="16" fill="#FFFFFF" stroke="#F1DDE4"/>
    <text x="56" y="496" class="h3">2026-05-17</text>
    <rect x="300" y="484" width="42" height="24" rx="12" fill="#EAF9F6"/>
    <text x="310" y="500" class="tiny mint">완료</text>
    <text x="56" y="526" class="body">20:10 → 20:40 · 30분</text>
    <text x="56" y="548" class="tiny rose">AI 통화 사용 안 함</text>

    <rect x="32" y="576" width="326" height="92" rx="16" fill="#FFFFFF" stroke="#F1DDE4"/>
    <text x="56" y="608" class="h3">2026-05-16</text>
    <rect x="300" y="596" width="42" height="24" rx="12" fill="#EAF9F6"/>
    <text x="310" y="612" class="tiny mint">완료</text>
    <text x="56" y="638" class="body">22:00 → 22:34 · 34분</text>
    <text x="56" y="660" class="tiny rose">AI 요약</text>
  </g>

  <!-- Screen 6 -->
  <g class="font" transform="translate(2214 160)">
    <text x="0" y="-28" class="screen-label">06 위험 지역 메모</text>
    <rect x="0" y="0" width="390" height="844" rx="34" fill="#D8CBD2" filter="url(#phoneShadow)"/>
    <rect x="8" y="8" width="374" height="828" rx="28" fill="#FFFDFE"/>
    <text x="32" y="52" class="small ink">9:41</text>
    <rect x="332" y="42" width="28" height="12" rx="3" fill="none" stroke="#24324B" stroke-width="2"/>
    <text x="32" y="104" class="h1">위험 지역 메모</text>
    <text x="32" y="132" class="body">불안했던 장소를 기록하고 다음 귀가에 참고합니다.</text>
    <rect x="288" y="88" width="70" height="36" rx="18" fill="#E85D75"/>
    <text x="310" y="111" class="tiny white">추가</text>

    <rect x="32" y="166" width="326" height="86" rx="16" fill="#FFFFFF" stroke="#F1DDE4"/>
    <circle cx="72" cy="209" r="22" fill="#FFF9EA"/>
    <g transform="translate(60 197)" color="#D58B00"><use href="#icon-alert" width="24" height="24"/></g>
    <text x="112" y="198" class="h3">학교 후문 골목</text>
    <text x="112" y="224" class="body">가로등이 어둡고 사람이 적음</text>
    <text x="112" y="244" class="tiny muted">2026-05-18 · 밤 10시 이후 우회 추천</text>

    <rect x="32" y="276" width="326" height="86" rx="16" fill="#FFFFFF" stroke="#F1DDE4"/>
    <circle cx="72" cy="319" r="22" fill="#FFF0F1"/>
    <g transform="translate(60 307)" color="#E5484D"><use href="#icon-alert" width="24" height="24"/></g>
    <text x="112" y="308" class="h3">버스정류장 뒤편</text>
    <text x="112" y="334" class="body">벽에 사람이 기대어 있음</text>
    <text x="112" y="354" class="tiny muted">2026-05-17 · 큰길 정류장 이용 추천</text>

    <text x="32" y="414" class="h3">빠른 등록</text>
    <rect x="32" y="438" width="326" height="52" rx="14" fill="#FFFFFF" stroke="#F1DDE4"/>
    <text x="54" y="470" class="body">학교 후문 골목</text>
    <rect x="32" y="516" width="326" height="52" rx="14" fill="#FFFFFF" stroke="#F1DDE4"/>
    <text x="54" y="548" class="body">가로등이 어둡고 사람이 적음</text>
    <rect x="32" y="594" width="326" height="76" rx="14" fill="#FFFFFF" stroke="#F1DDE4"/>
    <text x="54" y="626" class="body">밤 10시 이후에는 큰길 이용</text>

    <rect x="32" y="700" width="326" height="54" rx="14" fill="#2FAE9B"/>
    <text x="146" y="734" class="h3 white">저장하기</text>
  </g>
</svg>
